<?xml version="1.0" encoding="UTF-8"?>
<svg version="1.1" xmlns="http://www.w3.org/2000/svg" width="288" height="288">
<path d="M0 0 C0.76103027 0.19303711 1.52206055 0.38607422 2.30615234 0.58496094 C21.10421343 5.58300468 39.35520918 15.22520399 54 28 C54.90878906 28.78375 55.81757813 29.5675 56.75390625 30.375 C59.21097233 32.54278408 61.61421098 34.7543018 64 37 C64.90105469 37.82177734 64.90105469 37.82177734 65.8203125 38.66015625 C88.71807065 60.3331506 103.81962563 94.57714831 105.12280273 125.95703125 C105.47563434 140.52500861 105.52005641 154.79959276 102 169 C101.70198486 170.2051123 101.70198486 170.2051123 101.39794922 171.43457031 C98.32652543 183.41197273 93.99710607 194.20699304 88 205 C87.41089844 206.09054688 86.82179688 207.18109375 86.21484375 208.3046875 C68.54745798 239.93695451 37.38766797 263.37301052 2.76171875 273.25 C-22.27186065 279.93443581 -48.86308179 280.46247867 -74 274 C-74.76103027 273.80696289 -75.52206055 273.61392578 -76.30615234 273.41503906 C-95.10421343 268.41699532 -113.35520918 258.77479601 -128 246 C-128.90878906 245.21625 -129.81757813 244.4325 -130.75390625 243.625 C-133.21097233 241.45721592 -135.61421098 239.2456982 -138 237 C-138.60070312 236.45214844 -139.20140625 235.90429688 -139.8203125 235.33984375 C-162.71807065 213.6668494 -177.81962563 179.42285169 -179.12280273 148.04296875 C-179.47596627 133.46128642 -179.45650424 119.22405928 -176 105 C-175.83371094 104.30438965 -175.66742188 103.6087793 -175.49609375 102.89208984 C-169.54647918 78.85674878 -157.72844797 58.10906266 -141 40 C-140.20078125 39.11828125 -139.4015625 38.2365625 -138.578125 37.328125 C-103.69146273 0.56835334 -48.45340051 -12.45693942 0 0 Z " fill="#FDFCFC" transform="translate(181,7)"/>
<path d="M0 0 C3.20846627 0.60313233 4.06663352 1.58516775 6.09765625 4.1015625 C6.65582031 4.77445312 7.21398437 5.44734375 7.7890625 6.140625 C9.81542499 8.85150816 11.6575936 11.66021853 13.53515625 14.4765625 C16.332997 18.40513914 19.18125859 22.29732618 22.02148438 26.1953125 C22.58673828 26.97390625 23.15199219 27.7525 23.734375 28.5546875 C24.24830811 29.26012695 24.76224121 29.96556641 25.29174805 30.69238281 C26.53515625 32.4765625 26.53515625 32.4765625 27.53515625 34.4765625 C28.19515625 34.4765625 28.85515625 34.4765625 29.53515625 34.4765625 C30.91319054 32.84071588 30.91319054 32.84071588 32.34765625 30.6015625 C35.87453843 25.41890195 39.49387897 20.31169374 43.16015625 15.2265625 C43.98543823 14.07438232 43.98543823 14.07438232 44.82739258 12.89892578 C53.62314705 0.69370755 53.62314705 0.69370755 57.16015625 -0.1484375 C59.53515625 0.4765625 59.53515625 0.4765625 61.15933228 2.01501465 C63.0798676 5.45112979 62.9541554 8.65285821 62.92333984 12.48632812 C62.9285968 13.29003342 62.93385376 14.09373871 62.93927002 14.92179871 C62.95246241 17.57566828 62.94373478 20.22893693 62.93359375 22.8828125 C62.93561471 24.72839473 62.93852633 26.57397617 62.94229126 28.41955566 C62.94671358 32.28645434 62.94028653 36.15314504 62.92626953 40.02001953 C62.90917769 44.97675379 62.91901937 49.93300073 62.93698692 54.8897171 C62.94782725 58.70041577 62.94437728 62.5109989 62.93660355 66.32170105 C62.93460223 68.14934853 62.93705842 69.97700649 62.94404221 71.80464172 C62.95166079 74.35897613 62.94004711 76.91252125 62.92333984 79.46679688 C62.92941254 80.22224289 62.93548523 80.9776889 62.94174194 81.75602722 C62.90328322 84.92971851 62.71534089 87.15028709 61.16714478 89.95373535 C59.53515625 91.4765625 59.53515625 91.4765625 57.03515625 91.8515625 C54.53515625 91.4765625 54.53515625 91.4765625 51.53515625 89.4765625 C51.13642883 86.80636597 51.13642883 86.80636597 51.1027832 83.37451172 C51.07309196 81.45274612 51.07309196 81.45274612 51.0428009 79.49215698 C51.03603059 78.08852281 51.02958379 76.68488704 51.0234375 75.28125 C51.00659784 73.84919686 50.98844857 72.41715857 50.96903992 70.98513794 C50.92145567 67.21389403 50.89170125 63.44271029 50.86560059 59.67126465 C50.83583721 55.82369092 50.78929254 51.97632472 50.74414062 48.12890625 C50.65801189 40.57822778 50.59070966 33.02753437 50.53515625 25.4765625 C50.17276855 25.97994141 49.81038086 26.48332031 49.43701172 27.00195312 C47.76219738 29.32740326 46.0861831 31.65198613 44.41015625 33.9765625 C43.55550781 35.16378906 43.55550781 35.16378906 42.68359375 36.375 C39.02219262 41.45103339 35.31021608 46.48446332 31.53515625 51.4765625 C23.78515625 50.7265625 23.78515625 50.7265625 21.53515625 48.4765625 C21.24382812 47.72246094 20.9525 46.96835938 20.65234375 46.19140625 C19.36909776 43.07302876 17.68467752 40.73205778 15.66015625 38.0390625 C13.41126473 35.02017008 11.1878428 32.02366305 9.16015625 28.8515625 C7.75369557 26.38348094 7.75369557 26.38348094 5.53515625 25.4765625 C5.54181808 26.25916946 5.54847992 27.04177643 5.55534363 27.84809875 C5.61543057 35.21993372 5.66111815 42.59165011 5.69059277 49.96366596 C5.70625535 53.7537969 5.72750403 57.54372566 5.76147461 61.33374023 C5.79404755 64.99066851 5.8120048 68.6474022 5.81978798 72.30446434 C5.82533526 73.70035046 5.83616775 75.09622581 5.85234642 76.49202919 C5.87409054 78.4455084 5.8753814 80.39918301 5.87573242 82.3527832 C5.88239426 83.4653096 5.88905609 84.577836 5.8959198 85.72407532 C5.53515625 88.4765625 5.53515625 88.4765625 4.20527649 90.33586121 C1.61114271 92.10766882 -0.4206483 91.8651832 -3.46484375 91.4765625 C-5.95885567 87.73554462 -5.75346602 84.81960003 -5.73950195 80.48852539 C-5.74461288 79.67521255 -5.74972382 78.86189972 -5.75498962 78.02394104 C-5.76890298 75.33229233 -5.76792756 72.64089917 -5.765625 69.94921875 C-5.76951098 68.07978724 -5.77384545 66.2103566 -5.77861023 64.34092712 C-5.7860762 60.42102192 -5.78577844 56.50120678 -5.78051758 52.58129883 C-5.77472253 47.55617989 -5.79165295 42.53142949 -5.81486225 37.5063715 C-5.82958892 33.64507387 -5.83047275 29.78386521 -5.82735252 25.92254448 C-5.82786628 24.06977038 -5.83311411 22.21699137 -5.84316444 20.36424446 C-5.85549089 17.77391693 -5.84876019 15.18431 -5.8371582 12.59399414 C-5.84480194 11.82762634 -5.85244568 11.06125854 -5.86032104 10.27166748 C-5.82863225 7.07332898 -5.65722129 4.82466352 -4.09562683 1.99900818 C-2.46484375 0.4765625 -2.46484375 0.4765625 0 0 Z " fill="#B853A5" transform="translate(114.46484375,99.5234375)"/>
<path d="M0 0 C0.90878906 -0.00515625 1.81757812 -0.0103125 2.75390625 -0.015625 C9.51485254 0.65358075 14.70282829 4.60950801 19.4375 9.25 C24.75162562 16.6873213 25.16672896 23.05424363 23.9375 31.8125 C23.7725 32.616875 23.6075 33.42125 23.4375 34.25 C22.7775 34.25 22.1175 34.25 21.4375 34.25 C21.19 34.806875 20.9425 35.36375 20.6875 35.9375 C17.11298892 42.5503455 12.55857864 45.95226529 5.4375 48.25 C-0.97459845 48.97898567 -6.63950044 48.97611255 -12.5625 46.25 C-12.5625 45.59 -12.5625 44.93 -12.5625 44.25 C-13.15804688 44.17265625 -13.75359375 44.0953125 -14.3671875 44.015625 C-17.30399487 42.99140037 -18.04081569 41.60365791 -19.6875 39 C-20.18507813 38.23171875 -20.68265625 37.4634375 -21.1953125 36.671875 C-25.05244356 29.83924284 -25.36696859 23.73589422 -24.23828125 16.0390625 C-22.42297351 9.52455386 -17.1081658 5.7089365 -11.5625 2.25 C-7.6041094 0.63963112 -4.26352819 -0.02425905 0 0 Z " fill="#FA4231" transform="translate(43.5625,59.75)"/>
<path d="M0 0 C2.625 2.375 2.625 2.375 5 5 C5.886875 5.845625 6.77375 6.69125 7.6875 7.5625 C12.55085241 12.68873633 12.61187764 17.40233126 12.50390625 24.3125 C11.57406961 31.11688593 8.18843095 36.35300072 2.9296875 40.71875 C0.98599916 41.98990739 -0.88587637 43.04242636 -3 44 C-3.7940625 44.36222656 -4.588125 44.72445312 -5.40625 45.09765625 C-10.3681371 46.82385493 -15.98018259 46.92110261 -21.0234375 45.3828125 C-25.97431685 42.8513674 -29.86780503 38.5301803 -33 34 C-33.6953125 31.75 -33.6953125 31.75 -34 30 C-34.66 30 -35.32 30 -36 30 C-36.69370414 11.706765 -36.69370414 11.706765 -29.3125 3.6875 C-21.02390401 -3.997191 -10.03935391 -5.70865223 0 0 Z " fill="#82C957" transform="translate(95,221)"/>
<path d="M0 0 C0 0.66 0 1.32 0 2 C0.556875 2.226875 1.11375 2.45375 1.6875 2.6875 C5.86439854 5.05817214 8.44553724 7.67985058 10.3125 12.125 C11.69577885 19.92166258 12.23806911 28.01183589 8 35 C0.88834241 44.39999443 0.88834241 44.39999443 -3.421875 45.76953125 C-12.88405405 46.61539271 -19.47305812 46.42144021 -27.625 41.375 C-33.16224618 35.83775382 -36.15554652 29.09050246 -36.3125 21.375 C-36.22893185 13.93743427 -35.24503039 9.47287295 -30.1640625 4.03515625 C-21.08705609 -4.46801642 -11.09348175 -4.93043633 0 0 Z " fill="#4EA3DB" transform="translate(255,181)"/>
<path d="M0 0 C1.40378906 -0.02126953 1.40378906 -0.02126953 2.8359375 -0.04296875 C5.78618154 0.20081892 7.94864112 0.95637492 10.625 2.1875 C10.625 2.8475 10.625 3.5075 10.625 4.1875 C11.16125 4.249375 11.6975 4.31125 12.25 4.375 C17.24110382 6.08248288 21.47756066 10.18889574 23.9375 14.83203125 C26.05853618 22.09899042 25.72376433 31.27247221 22.625 38.1875 C21.635 38.5175 20.645 38.8475 19.625 39.1875 C18.8825 39.950625 18.14 40.71375 17.375 41.5 C11.77711367 46.97066164 8.1194907 48.48189876 0.3125 48.875 C-7.34002431 48.67042757 -11.97239912 46.54713786 -17.375 41.1875 C-21.375 36.56086815 -21.375 36.56086815 -21.375 33.1875 C-22.035 33.1875 -22.695 33.1875 -23.375 33.1875 C-24.03877173 15.68359355 -24.03877173 15.68359355 -18.53515625 8.9296875 C-16.5542865 6.81233324 -14.72728257 4.8851166 -12.375 3.1875 C-11.055 3.1875 -9.735 3.1875 -8.375 3.1875 C-8.375 2.5275 -8.375 1.8675 -8.375 1.1875 C-5.33978606 0.17576202 -3.17766921 0.02176486 0 0 Z " fill="#75B34F" transform="translate(140.375,234.8125)"/>
<path d="M0 0 C0 0.66 0 1.32 0 2 C0.556875 2.226875 1.11375 2.45375 1.6875 2.6875 C6.73369791 5.55155827 9.69907109 9.25926348 11.49609375 14.69140625 C13.09645001 22.02327096 12.51711825 28.40540328 9 35 C8.34 35 7.68 35 7 35 C6.773125 35.5775 6.54625 36.155 6.3125 36.75 C3.79579226 41.06435612 -0.31893691 43.6349269 -4.9140625 45.4609375 C-11.93645136 47.27571215 -18.76723089 46.61500608 -25 43 C-27.5625 40.875 -27.5625 40.875 -30 38 C-30.54140625 37.39542969 -31.0828125 36.79085937 -31.640625 36.16796875 C-36.18594923 30.44383379 -36.80252268 25.52654548 -36.4453125 18.3046875 C-35.40844798 10.6100613 -31.97826979 6.22882649 -25.99609375 1.41015625 C-18.45750429 -3.91554002 -8.35105007 -2.96926225 0 0 Z " fill="#EA439F" transform="translate(156,6)"/>
<path d="M0 0 C3.33946043 1.93688705 5.54097641 3.95647392 8.125 6.8125 C9.011875 7.67875 9.89875 8.545 10.8125 9.4375 C14.67060617 13.39987931 15.41853538 15.62597495 15.4375 21.0625 C15.33988952 26.56529092 14.87595485 30.06947439 12.125 34.8125 C11.79628906 35.40546875 11.46757812 35.9984375 11.12890625 36.609375 C7.94065651 41.77235382 3.92346666 44.97158821 -1.875 46.8125 C-8.39153829 47.673439 -15.38329941 48.21848056 -21.3125 44.9375 C-23.08984375 43.5390625 -23.08984375 43.5390625 -24.875 41.8125 C-25.61878906 41.11898437 -26.36257812 40.42546875 -27.12890625 39.7109375 C-31.43928252 35.10820528 -33.40597812 31.62267668 -33.5625 25.25 C-32.87697389 15.67511077 -30.78009388 10.03661013 -23.91015625 3.24609375 C-21.875 1.8125 -21.875 1.8125 -17.875 1.8125 C-17.875 1.1525 -17.875 0.4925 -17.875 -0.1875 C-12.28633024 -2.05038992 -5.54453288 -2.16163506 0 0 Z " fill="#469F92" transform="translate(206.875,220.1875)"/>
<path d="M0 0 C0 0.66 0 1.32 0 2 C0.5775 2.2475 1.155 2.495 1.75 2.75 C6.48814803 5.38230446 9.18904234 8.92931856 11 14 C12.11463832 22.38401869 10.91151633 29.05954493 6 36 C1.44497422 41.11764179 -3.97290953 44.66217483 -10.93359375 45.24609375 C-16.16512937 45.35495067 -20.19052733 45.21094806 -25 43 C-25 42.34 -25 41.68 -25 41 C-25.59554688 40.92394531 -26.19109375 40.84789062 -26.8046875 40.76953125 C-29.75585057 39.73504882 -30.48389759 38.31240464 -32.125 35.6875 C-32.62257813 34.90761719 -33.12015625 34.12773437 -33.6328125 33.32421875 C-34.08398438 32.55722656 -34.53515625 31.79023438 -35 31 C-35.57427734 30.04480469 -35.57427734 30.04480469 -36.16015625 29.0703125 C-38.39849501 23.55254719 -37.51534127 16.7464343 -35.875 11.1875 C-32.31656171 5.1381549 -28.16535354 -0.42600815 -21.1796875 -2.5546875 C-13.61524997 -4.10011022 -6.95290045 -3.14848322 0 0 Z " fill="#FFAE21" transform="translate(55,179)"/>
<path d="M0 0 C0 0.66 0 1.32 0 2 C0.5775 2.226875 1.155 2.45375 1.75 2.6875 C6.48320747 5.44853769 8.87609043 10.09867022 11 15 C12.01686392 21.22569746 12.37029696 27.35075921 9.41796875 33.05859375 C5.05130804 38.67764281 0.18250752 43.60902143 -7 45 C-14.58042511 45.61164806 -21.85536917 46.02232383 -28 41 C-30.32349403 38.50675298 -32.18731521 35.87996649 -34 33 C-34.61875 32.0925 -35.2375 31.185 -35.875 30.25 C-37.6117575 25.23270055 -37.22970838 20.2577697 -37 15 C-36.34 15 -35.68 15 -35 15 C-35 14.01 -35 13.02 -35 12 C-34.21669927 6.49451489 -30.15035329 3.32627592 -26 0 C-18.00886051 -4.9176243 -8.08172685 -4.40821464 0 0 Z " fill="#3D7293" transform="translate(272,124)"/>
<path d="M0 0 C1.093125 0.721875 2.18625 1.44375 3.3125 2.1875 C8.3395862 7.44840416 9.16220469 13.06173432 9.3125 20.1875 C9.20883555 24.45956668 8.75716479 28.04637922 7 32 C6.34 32 5.68 32 5 32 C4.773125 32.5775 4.54625 33.155 4.3125 33.75 C2.65151778 36.59739809 0.68475439 38.12067193 -2 40 C-2.66 40 -3.32 40 -4 40 C-4.33 40.99 -4.66 41.98 -5 43 C-11.20689418 44.65517178 -17.53575167 44.71003765 -23.6875 42.9375 C-27.76641069 40.55172205 -31.0586168 37.71025541 -34 34 C-34 33.34 -34 32.68 -34 32 C-34.66 32 -35.32 32 -36 32 C-39.4963907 26.75541395 -39.66525147 20.18225071 -39 14 C-37.625 11.25 -37.625 11.25 -36 9 C-35.7525 8.195625 -35.505 7.39125 -35.25 6.5625 C-32.85423762 1.65118711 -28.75256738 -1.24399054 -23.8125 -3.375 C-15.05056289 -4.81138313 -7.52472527 -5.11748654 0 0 Z " fill="#B54FA5" transform="translate(259,68)"/>
<path d="M0 0 C2.49181179 2.26528344 4.72568534 4.59266644 6.93359375 7.1328125 C7.66191406 7.80828125 8.39023438 8.48375 9.140625 9.1796875 C12.70559482 13.06309689 12.0956852 17.41593941 12.12109375 22.5078125 C12.13527344 23.79429688 12.14945313 25.08078125 12.1640625 26.40625 C11.93838247 30.0553813 11.37811481 32.78550852 9.93359375 36.1328125 C7.62109375 37.7578125 7.62109375 37.7578125 4.93359375 39.1328125 C4.10859375 39.8134375 3.28359375 40.4940625 2.43359375 41.1953125 C-2.41653283 44.9541606 -6.48943345 45.40712039 -12.56640625 45.3828125 C-14.5 45.39054687 -14.5 45.39054687 -16.47265625 45.3984375 C-20.84982954 45.0749073 -23.6420523 44.39429853 -26.9453125 41.46875 C-32.85251683 34.58843312 -36.81673256 28.93157101 -36.38671875 19.5859375 C-35.50171938 12.80813745 -32.86537573 8.04338592 -28.06640625 3.1328125 C-20.4342084 -2.63027567 -8.59498615 -5.23363488 0 0 Z " fill="#FA7E78" transform="translate(99.06640625,22.8671875)"/>
<path d="M0 0 C0.94875 0.7425 1.8975 1.485 2.875 2.25 C4.23625 3.2090625 4.23625 3.2090625 5.625 4.1875 C10.03144213 8.22673862 11.56221293 12.32801444 12.18359375 18.1328125 C12.51015401 26.3462979 11.42269422 32.00320611 5.875 38.25 C-2.10882758 44.90318965 -8.88130994 45.92109465 -19.125 45.25 C-25.50180192 43.24248829 -30.31694942 38.17266058 -33.78515625 32.56640625 C-36.4485625 25.9738934 -36.57273612 18.19881486 -35.125 11.25 C-32.16412873 5.74003426 -28.09425997 2.58909678 -23 -0.875 C-15.85549416 -2.48827551 -6.6632607 -3.71322678 0 0 Z " fill="#B2377B" transform="translate(213.125,21.75)"/>
<path d="M0 0 C1.0209375 0.4021875 1.0209375 0.4021875 2.0625 0.8125 C6.55309115 3.5647978 9.53291982 6.93190485 11 12 C11 12.99 11 13.98 11 15 C11.66 15 12.32 15 13 15 C13.64479306 23.28678494 13.76096606 29.86642268 8.92578125 36.87109375 C4.86952851 41.35518653 -0.83463459 45.7092184 -6.9765625 46.2734375 C-19.02647073 46.60887392 -19.02647073 46.60887392 -24.3203125 42.6328125 C-27.31693144 39.71982013 -29.71108856 36.48439385 -32 33 C-32.66 32.01 -33.32 31.02 -34 30 C-34.7229034 22.91386548 -35.25631419 14.97656701 -31.3984375 8.7109375 C-23.2356269 -1.27596485 -12.29730522 -5.27027367 0 0 Z " fill="#FF791E" transform="translate(38,120)"/>
<path d="M0 0 C2.5 0.5625 2.5 0.5625 4.13198853 2.0970459 C6.04048635 5.53657391 5.91898542 8.74050294 5.88818359 12.57226562 C5.89344055 13.37597092 5.89869751 14.17967621 5.90411377 15.00773621 C5.91730616 17.66160578 5.90857853 20.31487443 5.8984375 22.96875 C5.90045846 24.81433223 5.90337008 26.65991367 5.90713501 28.50549316 C5.91155733 32.37239184 5.90513028 36.23908254 5.89111328 40.10595703 C5.87402144 45.06269129 5.88386312 50.01893823 5.90183067 54.9756546 C5.912671 58.78635327 5.90922103 62.5969364 5.9014473 66.40763855 C5.89944598 68.23528603 5.90190217 70.06294399 5.90888596 71.89057922 C5.91650454 74.44491363 5.90489086 76.99845875 5.88818359 79.55273438 C5.89729263 80.6859034 5.89729263 80.6859034 5.90658569 81.84196472 C5.86818399 85.01095114 5.67528577 87.24134324 4.14370728 90.04748535 C2.5 91.5625 2.5 91.5625 -0.1875 91.8125 C-0.950625 91.73 -1.71375 91.6475 -2.5 91.5625 C-2.5 90.5725 -2.5 89.5825 -2.5 88.5625 C-3.16 88.5625 -3.82 88.5625 -4.5 88.5625 C-4.70025553 77.82725861 -4.88396967 67.09187368 -5.04658794 56.35599232 C-5.12261818 51.37085376 -5.20433719 46.38594401 -5.29907227 41.40112305 C-5.39029242 36.59022538 -5.46654928 31.77930157 -5.53244972 26.96799278 C-5.56021469 25.13270921 -5.59336482 23.29749892 -5.63199425 21.46241188 C-5.68519506 18.89135049 -5.71921642 16.32069438 -5.7487793 13.74926758 C-5.76891586 12.99113266 -5.78905243 12.23299774 -5.80979919 11.45188904 C-5.8400289 6.4825083 -5.52654018 1.24347154 0 0 Z " fill="#B2357B" transform="translate(171.5,99.4375)"/>
<path d="M0 0 C0.33 0 0.66 0 1 0 C1.20625 0.99 1.4125 1.98 1.625 3 C2.76052027 7.05660502 4.92763279 9.87116925 7.5625 13.10546875 C8.99607386 14.99482561 9.94810483 16.88306096 11 19 C11.66 19.66 12.32 20.32 13 21 C12.34 21 11.68 21 11 21 C11.00666183 21.78260696 11.01332367 22.56521393 11.02018738 23.37153625 C11.08027432 30.74337122 11.1259619 38.11508761 11.15543652 45.48710346 C11.1710991 49.2772344 11.19234778 53.06716316 11.22631836 56.85717773 C11.2588913 60.51410601 11.27684855 64.1708397 11.28463173 67.82790184 C11.29017901 69.22378796 11.3010115 70.61966331 11.31719017 72.01546669 C11.33893429 73.9689459 11.34022515 75.92262051 11.34057617 77.8762207 C11.34723801 78.9887471 11.35389984 80.1012735 11.36076355 81.24751282 C11 84 11 84 9.67012024 85.85929871 C7.07598646 87.63110632 5.04419545 87.3886207 2 87 C-0.50816366 83.23775451 -0.26746142 80.30213788 -0.22705078 75.94848633 C-0.22734283 75.12874832 -0.22763489 74.30901031 -0.22793579 73.46443176 C-0.22654188 70.75352411 -0.21097781 68.04289092 -0.1953125 65.33203125 C-0.19158259 63.45301972 -0.18873551 61.57400624 -0.18673706 59.69499207 C-0.17909889 54.74820592 -0.15944879 49.80153713 -0.1373291 44.85479736 C-0.11687466 39.80751127 -0.1077362 34.76020622 -0.09765625 29.71289062 C-0.0762031 19.80854218 -0.0420649 9.90428085 0 0 Z " fill="#E947A0" transform="translate(109,104)"/>
<path d="M0 0 C0 28.66666667 0 57.33333333 0 86 C0.66 86 1.32 86 2 86 C1.67 86.66 1.34 87.32 1 88 C0.34 87.67 -0.32 87.34 -1 87 C-1.495 55.32 -1.495 55.32 -2 23 C-6.29 28.94 -10.58 34.88 -15 41 C-16.98 43.475 -16.98 43.475 -19 46 C-19.0928125 44.453125 -19.0928125 44.453125 -19.1875 42.875 C-20.18548657 38.11537173 -21.70490867 36.46407037 -25 33 C-24.43410156 32.47019531 -23.86820313 31.94039062 -23.28515625 31.39453125 C-20.6965307 28.68200567 -18.57224432 25.75592629 -16.4375 22.6875 C-15.56470776 21.44858022 -14.6909735 20.21032366 -13.81640625 18.97265625 C-13.13408936 18.00610107 -13.13408936 18.00610107 -12.43798828 17.02001953 C-9.95274522 13.52886485 -7.41406127 10.07711251 -4.875 6.625 C-4.3895874 5.96459717 -3.9041748 5.30419434 -3.40405273 4.6237793 C-2.27011183 3.08197255 -1.1351728 1.54089997 0 0 Z " fill="#E451A2" transform="translate(167,102)"/>
<path d="M0 0 C2.5625 0.4375 2.5625 0.4375 4.2109375 2.4453125 C5.93545122 6.26316657 5.89281639 9.65226829 5.75 13.75 C5.73646484 14.49056641 5.72292969 15.23113281 5.70898438 15.99414062 C5.67385979 17.80891075 5.62005972 19.62330288 5.5625 21.4375 C4.9025 21.4375 4.2425 21.4375 3.5625 21.4375 C-0.46893694 17.03368134 -4.97077609 12.10076046 -5.0625 5.875 C-4.354093 1.97876153 -3.97395484 0.71327394 0 0 Z " fill="#9E244E" transform="translate(114.4375,99.5625)"/>
<path d="M0 0 C2.46800047 1.15173355 4.04783565 2.04783565 6 4 C6.265625 5.875 6.265625 5.875 6.25 8 C6.25515625 8.70125 6.2603125 9.4025 6.265625 10.125 C6 12 6 12 4 14 C0.4375 13.75 0.4375 13.75 -3 13 C-4.42662219 10.14675563 -4.31033868 8.16545451 -4 5 C-2 2.125 -2 2.125 0 0 Z " fill="#A8276B" transform="translate(142,137)"/>
<path d="M0 0 C0.91355228 7.04740328 -1.13015015 10.43296234 -5.2734375 16.09375 C-6.12808594 17.03734375 -6.12808594 17.03734375 -7 18 C-7.66 18 -8.32 18 -9 18 C-9.10823773 15.75106046 -9.18569645 13.50062425 -9.25 11.25 C-9.29640625 9.99703125 -9.3428125 8.7440625 -9.390625 7.453125 C-9 4 -9 4 -7.15625 1.5625 C-4.55966769 -0.31908139 -3.13764313 -0.34862701 0 0 Z " fill="#A31F52" transform="translate(176,102)"/>
<path d="M0 0 C0.763125 0.103125 1.52625 0.20625 2.3125 0.3125 C2.6425 0.9725 2.9725 1.6325 3.3125 2.3125 C2.52875 2.60125 1.745 2.89 0.9375 3.1875 C-1.78421632 4.16162254 -1.78421632 4.16162254 -3.6875 6.3125 C-3.98809943 8.67759361 -4.18265012 11.05691881 -4.3125 13.4375 C-4.38726562 14.71882813 -4.46203125 16.00015625 -4.5390625 17.3203125 C-4.58804688 18.30773437 -4.63703125 19.29515625 -4.6875 20.3125 C-4.0275 20.6425 -3.3675 20.9725 -2.6875 21.3125 C-3.6775 21.6425 -4.6675 21.9725 -5.6875 22.3125 C-5.76876109 19.58272936 -5.82811663 16.8553983 -5.875 14.125 C-5.90013672 13.35607422 -5.92527344 12.58714844 -5.95117188 11.79492188 C-6.01561864 6.78955677 -6.09210636 0.70838446 0 0 Z " fill="#B8296A" transform="translate(171.6875,99.6875)"/>
<path d="M0 0 C0 2 0 2 -1.546875 3.61328125 C-4.89611286 5.50656061 -7.43075737 5.29359007 -11.25 5.1875 C-12.51328125 5.16042969 -13.7765625 5.13335937 -15.078125 5.10546875 C-16.52445313 5.05326172 -16.52445313 5.05326172 -18 5 C-18 4.34 -18 3.68 -18 3 C-17.18015625 2.95101563 -16.3603125 2.90203125 -15.515625 2.8515625 C-14.43796875 2.77679688 -13.3603125 2.70203125 -12.25 2.625 C-11.18265625 2.55539062 -10.1153125 2.48578125 -9.015625 2.4140625 C-5.74696712 1.96525714 -3.1830482 0 0 0 Z " fill="#D9E9CF" transform="translate(154,280)"/>
<path d="M0 0 C15.92938497 -0.738041 15.92938497 -0.738041 22 4 C21.67 4.99 21.34 5.98 21 7 C20.236875 6.360625 19.47375 5.72125 18.6875 5.0625 C14.63686897 1.95387618 11.29586184 1.78288151 6.3125 1.4375 C5.13300781 1.35371094 3.95351562 1.26992188 2.73828125 1.18359375 C1.83464844 1.12300781 0.93101562 1.06242187 0 1 C0 0.67 0 0.34 0 0 Z " fill="#E7C6D8" transform="translate(196,19)"/>
<path d="M0 0 C0.66 0.33 1.32 0.66 2 1 C0.92492371 2.29854721 -0.16043736 3.58858361 -1.25 4.875 C-1.85328125 5.59429687 -2.4565625 6.31359375 -3.078125 7.0546875 C-4.97087634 8.97052118 -6.53657727 9.96449045 -9 11 C-7.59155282 7.78475695 -5.89655214 5.67816132 -3.375 3.25 C-2.74335937 2.63640625 -2.11171875 2.0228125 -1.4609375 1.390625 C-0.73777344 0.70226562 -0.73777344 0.70226562 0 0 Z " fill="#9FD57C" transform="translate(70,221)"/>
<path d="M0 0 C0.66 0.33 1.32 0.66 2 1 C0.90033225 2.29549899 -0.20491801 3.58626071 -1.3125 4.875 C-1.92738281 5.59429687 -2.54226562 6.31359375 -3.17578125 7.0546875 C-5 9 -5 9 -8 11 C-6.52670958 5.99081256 -3.72484762 3.48192278 0 0 Z " fill="#FF9655" transform="translate(14,121)"/>
<path d="M0 0 C0.66 0.33 1.32 0.66 2 1 C-1.63 4.63 -5.26 8.26 -9 12 C-9 7.8407692 -6.75316432 5.85455565 -4 3 C-1.6875 1.125 -1.6875 1.125 0 0 Z " fill="#FBA39E" transform="translate(75,23)"/>
<path d="M0 0 C0.66 0.33 1.32 0.66 2 1 C0.73657512 2.48549956 -0.5360103 3.96321189 -1.8125 5.4375 C-2.52019531 6.26121094 -3.22789063 7.08492187 -3.95703125 7.93359375 C-6 10 -6 10 -9 11 C-7.59155282 7.78475695 -5.89655214 5.67816132 -3.375 3.25 C-2.74335937 2.63640625 -2.11171875 2.0228125 -1.4609375 1.390625 C-0.73777344 0.70226562 -0.73777344 0.70226562 0 0 Z " fill="#9AC77A" transform="translate(128,238)"/>
<path d="M0 0 C0.66 0.33 1.32 0.66 2 1 C-1.34003602 5.32239956 -4.32751069 8.17477391 -9 11 C-7.59155282 7.78475695 -5.89655214 5.67816132 -3.375 3.25 C-2.74335938 2.63640625 -2.11171875 2.0228125 -1.4609375 1.390625 C-0.73777344 0.70226562 -0.73777344 0.70226562 0 0 Z " fill="#74B9AF" transform="translate(185,222)"/>
<path d="M0 0 C2.62187494 1.04874998 3.79371361 1.64931313 5.25 4.125 C5.4975 4.74375 5.745 5.3625 6 6 C4.35 5.01 2.7 4.02 1 3 C-0.65 4.32 -2.3 5.64 -4 7 C-2.92598892 4.08482708 -2.22189824 2.22189824 0 0 Z " fill="#B32D79" transform="translate(142,137)"/>
<path d="M0 0 C0.33 0 0.66 0 1 0 C1.33 2.64 1.66 5.28 2 8 C2.33 8 2.66 8 3 8 C3 9.98 3 11.96 3 14 C2.34 14 1.68 14 1 14 C-0.04976964 10.85069107 -0.10131595 8.61185544 -0.0625 5.3125 C-0.05347656 4.31863281 -0.04445313 3.32476562 -0.03515625 2.30078125 C-0.02355469 1.54152344 -0.01195313 0.78226562 0 0 Z " fill="#FB6C63" transform="translate(19,78)"/>
<path d="M0 0 C2.52349243 3.12432397 4.27256146 6.38060496 6 10 C5.01 10 4.02 10 3 10 C0.39749195 6.62637846 -0.36265043 4.23092172 0 0 Z " fill="#FFE9CA" transform="translate(18,206)"/>
<path d="M0 0 C1.65 0 3.3 0 5 0 C5.33 0.66 5.66 1.32 6 2 C5.236875 2.28875 4.47375 2.5775 3.6875 2.875 C0.84970692 3.96269013 0.84970692 3.96269013 -2 6 C-1.34 4.02 -0.68 2.04 0 0 Z " fill="#B65170" transform="translate(169,100)"/>
<path d="M0 0 C0.66 0 1.32 0 2 0 C1.42647107 3.87132028 -0.48704352 6.08172796 -3 9 C-2.5020163 5.26512223 -2.12508244 3.18762365 0 0 Z " fill="#FC8A86" transform="translate(23,69)"/>
<path d="M0 0 C0.66 0.33 1.32 0.66 2 1 C0.38405168 3.04119788 -1.2856382 5.04072937 -3 7 C-3.66 7 -4.32 7 -5 7 C-3.70700306 4.11562221 -2.34058637 2.12780579 0 0 Z " fill="#7CBCE4" transform="translate(228,182)"/>
</svg>
